<svg width="997" height="412" viewBox="0 0 997 412" fill="none" xmlns="http://www.w3.org/2000/svg">
<path d="M123.51 142.4C135.377 147.867 145.443 154.467 153.71 162.2C162.11 169.933 166.31 178.333 166.31 187.4C166.31 195.4 164.11 201.333 159.71 205.2C155.31 209.067 149.91 211 143.51 211C134.31 211 125.643 206.8 117.51 198.4C109.51 189.867 101.777 178.733 94.3102 165C94.3102 174.467 93.7768 182.4 92.7102 188.8C91.7768 195.2 89.6435 200.533 86.3102 204.8C82.9768 208.933 77.9768 211 71.3102 211C64.3768 211 59.2435 208.4 55.9102 203.2C52.7102 198 50.7102 191.733 49.9102 184.4C49.2435 177.067 48.9102 167.467 48.9102 155.6C48.9102 147.2 48.9768 137.267 49.1102 125.8C49.3768 114.2 49.6435 107 49.9102 104.2C50.1768 94.2 52.2435 86.2 56.1102 80.2C59.9768 74.0667 65.4435 71 72.5102 71C80.6435 71 86.3102 74.4667 89.5102 81.4C92.8435 88.3333 94.5102 98.9333 94.5102 113.2V119.2C101.31 106.933 109.177 95.9333 118.11 86.2C127.043 76.4667 135.977 71.6 144.91 71.6C151.177 71.6 156.31 74 160.31 78.8C164.443 83.4667 166.51 89.2667 166.51 96.2C166.51 105.533 162.51 114.467 154.51 123C146.643 131.4 136.31 137.867 123.51 142.4ZM263.449 30C260.916 30 258.783 29.1333 257.049 27.4C255.449 25.6667 254.649 23.7333 254.649 21.6C254.649 19.4667 255.849 16.6667 258.249 13.2C260.783 9.73332 263.649 6.73332 266.849 4.19999C270.183 1.53333 273.049 0.199996 275.449 0.199996C278.916 0.199996 281.649 1.4 283.649 3.8C285.783 6.06666 286.849 8.53332 286.849 11.2C286.849 13.3333 285.383 15.9333 282.449 19C279.649 21.9333 276.383 24.5333 272.649 26.8C268.916 28.9333 265.849 30 263.449 30ZM222.849 65.6C219.249 65.6 216.449 64.6667 214.449 62.8C212.449 60.8 211.449 58.0667 211.449 54.6C211.449 51.5333 212.849 48.1333 215.649 44.4C218.583 40.6667 222.249 37.5333 226.649 35C231.049 32.4667 235.383 31.2 239.649 31.2C244.049 31.2 248.449 32.4667 252.849 35C257.383 37.4 261.116 40.4667 264.049 44.2C266.983 47.8 268.449 51.2667 268.449 54.6C268.449 58.0667 267.449 60.8 265.449 62.8C263.449 64.6667 260.649 65.6 257.049 65.6C253.983 65.6 250.916 64.6667 247.849 62.8C244.916 60.8 242.316 58.2667 240.049 55.2C237.649 58.2667 234.916 60.8 231.849 62.8C228.916 64.6667 225.916 65.6 222.849 65.6ZM276.249 179C282.649 181 285.849 185.2 285.849 191.6C285.849 197.6 282.783 202.333 276.649 205.8C270.516 209.267 259.916 211 244.849 211C226.049 211 209.916 206.467 196.449 197.4C183.116 188.333 176.449 170.333 176.449 143.4C176.449 129.8 178.783 117.533 183.449 106.6C188.116 95.6667 195.049 87 204.249 80.6C213.583 74.2 224.983 71 238.449 71C256.449 71 269.116 73.8 276.449 79.4C283.783 84.8667 287.449 91.6 287.449 99.6C287.449 103.333 286.516 106.8 284.649 110C282.783 113.067 279.983 115.467 276.249 117.2C273.049 118.8 268.916 119.6 263.849 119.6L258.449 119.4C257.383 119.267 255.849 119.2 253.849 119.2C246.916 119.2 241.449 120.467 237.449 123C233.449 125.4 230.716 129.133 229.249 134.2C234.849 133.933 239.916 133.8 244.449 133.8C257.916 133.8 266.649 134.2 270.649 135C275.183 135.933 278.649 137.733 281.049 140.4C283.583 143.067 284.849 146.2 284.849 149.8C284.849 153.4 283.649 156.533 281.249 159.2C278.849 161.733 275.249 163.467 270.449 164.4C266.716 165.2 257.649 165.6 243.249 165.6C237.383 165.6 233.249 165.533 230.849 165.4C234.983 174.2 242.716 178.6 254.049 178.6C254.716 178.6 256.249 178.467 258.649 178.2C261.849 177.933 264.583 177.8 266.849 177.8C270.716 177.8 273.849 178.2 276.249 179ZM438.943 100.8C438.943 109.6 435.276 116 427.943 120C420.743 123.867 408.943 126.2 392.543 127C393.076 133.4 393.343 141.667 393.343 151.8C393.343 165.933 392.543 177.267 390.943 185.8C389.476 194.2 386.876 200.467 383.143 204.6C379.41 208.6 374.21 210.6 367.543 210.6C361.01 210.6 356.01 208.467 352.543 204.2C349.076 199.933 346.676 193.6 345.343 185.2C344.01 176.8 343.343 165.667 343.343 151.8C343.343 142.467 343.543 134.2 343.943 127C332.876 126.467 323.943 125.333 317.143 123.6C310.476 121.733 305.543 119 302.343 115.4C299.143 111.8 297.543 106.933 297.543 100.8C297.543 93.3333 300.076 87.4667 305.143 83.2C310.21 78.9333 317.81 75.9333 327.943 74.2C338.076 72.4667 351.343 71.6 367.743 71.6C384.276 71.6 397.676 72.4667 407.943 74.2C418.21 75.9333 425.943 78.9333 431.143 83.2C436.343 87.4667 438.943 93.3333 438.943 100.8ZM536.071 211C529.538 211 524.204 207 520.071 199C516.071 191 513.204 181.333 511.471 170C509.738 158.667 508.871 147.733 508.871 137.2C508.871 120 511.604 104.733 517.071 91.4C522.671 77.9333 532.004 71.2 545.071 71.2C550.804 71.2 555.804 73.4 560.071 77.8C564.471 82.2 568.271 87.9333 571.471 95C574.671 101.933 578.538 111.6 583.071 124L586.471 133.4C586.204 128.333 586.071 124.6 586.071 122.2C586.071 106.6 588.138 94.2 592.271 85C596.538 75.8 603.271 71.2 612.471 71.2C623.538 71.2 631.138 77.8 635.271 91C639.404 104.067 641.471 119.467 641.471 137.2C641.471 147.733 640.138 158.667 637.471 170C634.938 181.333 630.604 191 624.471 199C618.338 207 610.338 211 600.471 211C594.471 211 589.204 208.867 584.671 204.6C580.271 200.2 576.538 194.8 573.471 188.4C570.538 182 567.004 173.2 562.871 162C560.738 156.133 559.071 151.733 557.871 148.8L558.071 165C558.071 175.533 557.538 184.067 556.471 190.6C555.404 197 553.271 202 550.071 205.6C547.004 209.2 542.338 211 536.071 211ZM743.049 37.4C740.649 37.4 738.649 36.5333 737.049 34.8C735.449 33.0667 734.649 31.2 734.649 29.2C734.649 27.2 735.783 24.6 738.049 21.4C740.449 18.0667 743.183 15.1333 746.249 12.6C749.449 10.0667 752.183 8.79999 754.449 8.79999C757.649 8.79999 760.249 9.93333 762.249 12.2C764.249 14.4667 765.249 16.8667 765.249 19.4C765.249 21.4 763.849 23.8667 761.049 26.8C758.383 29.6 755.249 32.0667 751.649 34.2C748.183 36.3333 745.316 37.4 743.049 37.4ZM702.649 67.6C699.049 67.6 696.249 66.6667 694.249 64.8C692.249 62.8 691.249 60.0667 691.249 56.6C691.249 53.5333 692.649 50.1333 695.449 46.4C698.383 42.6667 702.049 39.5333 706.449 37C710.849 34.4667 715.183 33.2 719.449 33.2C723.849 33.2 728.249 34.4667 732.649 37C737.183 39.4 740.916 42.4667 743.849 46.2C746.783 49.8 748.249 53.2667 748.249 56.6C748.249 60.0667 747.249 62.8 745.249 64.8C743.249 66.6667 740.449 67.6 736.849 67.6C733.783 67.6 730.716 66.6667 727.649 64.8C724.716 62.8 722.116 60.2667 719.849 57.2C717.449 60.2667 714.716 62.8 711.649 64.8C708.716 66.6667 705.716 67.6 702.649 67.6ZM719.649 211.2C707.516 211.333 696.249 208.333 685.849 202.2C675.583 196.067 667.316 187.667 661.049 177C654.916 166.2 651.716 154.267 651.449 141.2C651.316 128.667 654.249 117.067 660.249 106.4C666.249 95.7333 674.516 87.2667 685.049 81C695.583 74.6 707.116 71.4 719.649 71.4C731.916 71.2667 743.249 74.3333 753.649 80.6C764.183 86.8667 772.516 95.4667 778.649 106.4C784.783 117.333 787.849 129.4 787.849 142.6C787.849 155 784.783 166.4 778.649 176.8C772.516 187.2 764.183 195.467 753.649 201.6C743.249 207.733 731.916 210.933 719.649 211.2ZM720.249 172.2C726.383 172.2 731.583 170 735.849 165.6C740.249 161.2 742.383 155.467 742.249 148.4C742.249 141.2 740.116 135.4 735.849 131C731.583 126.6 726.383 124.4 720.249 124.4C714.116 124.4 708.916 126.6 704.649 131C700.383 135.4 698.249 141.2 698.249 148.4C698.249 155.467 700.383 161.2 704.649 165.6C708.916 170 714.116 172.2 720.249 172.2ZM862.734 174.8C869.534 175.6 874.8 177.333 878.534 180C882.4 182.533 884.334 186.6 884.334 192.2C884.334 197.8 882.334 201.933 878.334 204.6C874.467 207.267 869.8 208.933 864.334 209.6C858.867 210.133 851.8 210.4 843.134 210.4C834.6 210.4 827.6 210.133 822.134 209.6C816.667 208.933 812 207.267 808.134 204.6C804.267 201.933 802.334 197.8 802.334 192.2C802.334 186.733 804.134 182.733 807.734 180.2C811.467 177.533 816.534 175.733 822.934 174.8C822.267 167.067 821.934 156 821.934 141.6C821.934 128.667 822.2 118.267 822.734 110.4C815 109.6 808.934 107.733 804.534 104.8C800.134 101.867 797.934 97.2667 797.934 91C797.934 84.8667 800.067 80.3333 804.334 77.4C808.6 74.4667 813.734 72.6667 819.734 72C825.734 71.3333 833.467 71 842.934 71C852.4 71 860.134 71.3333 866.134 72C872.134 72.6667 877.267 74.4667 881.534 77.4C885.934 80.3333 888.134 84.8667 888.134 91C888.134 97.2667 885.867 101.867 881.334 104.8C876.934 107.733 870.8 109.6 862.934 110.4C863.6 117.733 863.934 128.133 863.934 141.6C863.934 154.533 863.534 165.6 862.734 174.8ZM141.873 300.8C141.873 309.6 138.206 316 130.873 320C123.673 323.867 111.873 326.2 95.4727 327C96.006 333.4 96.2727 341.667 96.2727 351.8C96.2727 365.933 95.4727 377.267 93.8727 385.8C92.406 394.2 89.806 400.467 86.0727 404.6C82.3393 408.6 77.1393 410.6 70.4727 410.6C63.9393 410.6 58.9393 408.467 55.4727 404.2C52.006 399.933 49.606 393.6 48.2727 385.2C46.9393 376.8 46.2727 365.667 46.2727 351.8C46.2727 342.467 46.4727 334.2 46.8727 327C35.806 326.467 26.8727 325.333 20.0727 323.6C13.406 321.733 8.47266 319 5.27266 315.4C2.07266 311.8 0.472656 306.933 0.472656 300.8C0.472656 293.333 3.00599 287.467 8.07266 283.2C13.1393 278.933 20.7393 275.933 30.8727 274.2C41.006 272.467 54.2727 271.6 70.6727 271.6C87.206 271.6 100.606 272.467 110.873 274.2C121.139 275.933 128.873 278.933 134.073 283.2C139.273 287.467 141.873 293.333 141.873 300.8ZM261.526 327.6C261.526 337.333 260.059 345.933 257.126 353.4C254.326 360.867 250.326 367.133 245.126 372.2C249.526 379 251.726 385.6 251.726 392C251.726 397.467 249.592 402 245.326 405.6C241.192 409.2 236.459 411 231.126 411C228.059 411 225.259 410.533 222.726 409.6C220.192 408.667 217.459 407.067 214.526 404.8C211.992 402.8 209.592 400.067 207.326 396.6C205.059 393.133 203.259 389.533 201.926 385.8C197.526 385.267 193.126 384.133 188.726 382.4C189.526 386.667 189.926 389.933 189.926 392.2C189.926 404.867 183.326 411.2 170.126 411.2C159.059 411.2 151.259 404.733 146.726 391.8C142.192 378.867 139.926 363.067 139.926 344.4C139.926 331.733 142.192 319.867 146.726 308.8C151.392 297.6 158.459 288.6 167.926 281.8C177.392 274.867 188.926 271.4 202.526 271.4C213.459 271.4 223.392 273.733 232.326 278.4C241.259 282.933 248.326 289.467 253.526 298C258.859 306.533 261.526 316.4 261.526 327.6ZM186.726 337C186.726 341.533 188.526 345.533 192.126 349C195.726 352.333 199.859 354 204.526 354C209.326 354 213.459 352.333 216.926 349C220.526 345.533 222.326 341.533 222.326 337C222.326 332.333 220.526 328.333 216.926 325C213.459 321.533 209.326 319.8 204.526 319.8C199.859 319.8 195.726 321.533 192.126 325C188.526 328.467 186.726 332.467 186.726 337ZM326.405 374.8C333.205 375.6 338.472 377.333 342.205 380C346.072 382.533 348.005 386.6 348.005 392.2C348.005 397.8 346.005 401.933 342.005 404.6C338.139 407.267 333.472 408.933 328.005 409.6C322.539 410.133 315.472 410.4 306.805 410.4C298.272 410.4 291.272 410.133 285.805 409.6C280.339 408.933 275.672 407.267 271.805 404.6C267.939 401.933 266.005 397.8 266.005 392.2C266.005 386.733 267.805 382.733 271.405 380.2C275.139 377.533 280.205 375.733 286.605 374.8C285.939 367.067 285.605 356 285.605 341.6C285.605 328.667 285.872 318.267 286.405 310.4C278.672 309.6 272.605 307.733 268.205 304.8C263.805 301.867 261.605 297.267 261.605 291C261.605 284.867 263.739 280.333 268.005 277.4C272.272 274.467 277.405 272.667 283.405 272C289.405 271.333 297.139 271 306.605 271C316.072 271 323.805 271.333 329.805 272C335.805 272.667 340.939 274.467 345.205 277.4C349.605 280.333 351.805 284.867 351.805 291C351.805 297.267 349.539 301.867 345.005 304.8C340.605 307.733 334.472 309.6 326.605 310.4C327.272 317.733 327.605 328.133 327.605 341.6C327.605 354.533 327.205 365.6 326.405 374.8ZM563.162 300.8C563.162 309.6 559.495 316 552.162 320C544.962 323.867 533.162 326.2 516.762 327C517.295 333.4 517.562 341.667 517.562 351.8C517.562 365.933 516.762 377.267 515.162 385.8C513.695 394.2 511.095 400.467 507.362 404.6C503.628 408.6 498.428 410.6 491.762 410.6C485.228 410.6 480.228 408.467 476.762 404.2C473.295 399.933 470.895 393.6 469.562 385.2C468.228 376.8 467.562 365.667 467.562 351.8C467.562 342.467 467.762 334.2 468.162 327C457.095 326.467 448.162 325.333 441.362 323.6C434.695 321.733 429.762 319 426.562 315.4C423.362 311.8 421.762 306.933 421.762 300.8C421.762 293.333 424.295 287.467 429.362 283.2C434.428 278.933 442.028 275.933 452.162 274.2C462.295 272.467 475.562 271.6 491.962 271.6C508.495 271.6 521.895 272.467 532.162 274.2C542.428 275.933 550.162 278.933 555.362 283.2C560.562 287.467 563.162 293.333 563.162 300.8ZM677.274 271.4C684.741 271.4 690.474 274 694.474 279.2C698.608 284.4 701.408 292 702.874 302C704.341 311.867 705.074 325 705.074 341.4C705.074 357.8 704.341 370.933 702.874 380.8C701.408 390.533 698.674 397.933 694.674 403C690.674 408.067 684.874 410.6 677.274 410.6C668.208 410.6 661.808 406.733 658.074 399C654.341 391.267 652.141 379.267 651.474 363C647.341 363.133 640.541 363.2 631.074 363.2H620.674C619.874 379.467 617.608 391.467 613.874 399.2C610.141 406.933 603.741 410.8 594.674 410.8C587.074 410.8 581.274 408.267 577.274 403.2C573.274 398.133 570.541 390.733 569.074 381C567.741 371.133 567.074 357.933 567.074 341.4C567.074 324.867 567.741 311.667 569.074 301.8C570.541 291.933 573.274 284.467 577.274 279.4C581.274 274.2 587.074 271.6 594.674 271.6C601.208 271.6 606.341 273.667 610.074 277.8C613.808 281.8 616.408 287.667 617.874 295.4C619.474 303 620.474 312.867 620.874 325H635.074C642.408 325 647.808 325.067 651.274 325.2C651.674 306.8 653.674 293.267 657.274 284.6C661.008 275.8 667.674 271.4 677.274 271.4ZM859.721 243.8C863.721 243.8 866.588 245.2 868.321 248C870.188 250.8 871.254 253.867 871.521 257.2C871.921 260.533 872.121 264.733 872.121 269.8C872.121 275.667 870.321 281.067 866.721 286C863.121 290.933 858.188 294.267 851.921 296C854.854 306.4 856.321 320.067 856.321 337C856.321 350.333 853.588 362.667 848.121 374C842.788 385.2 834.788 394.2 824.121 401C813.454 407.667 800.654 411 785.721 411C770.788 411 757.988 407.667 747.321 401C736.654 394.2 728.588 385.2 723.121 374C717.788 362.667 715.121 350.333 715.121 337C715.121 318.6 717.254 303 721.521 290.2C725.788 277.4 734.121 271 746.521 271C756.254 271 763.254 273.867 767.521 279.6C771.788 285.333 773.921 292.4 773.921 300.8C773.921 306.4 773.388 312.933 772.321 320.4C771.254 327.6 770.721 333.667 770.721 338.6C770.721 345.133 771.854 350.733 774.121 355.4C776.388 360.067 780.254 362.4 785.721 362.4C791.321 362.4 795.188 360.067 797.321 355.4C799.588 350.733 800.721 345.133 800.721 338.6C800.721 333.667 800.188 327.6 799.121 320.4C798.054 312.933 797.521 306.4 797.521 300.8C797.521 292.4 799.654 285.333 803.921 279.6C808.188 273.867 815.188 271 824.921 271C826.121 271 826.988 271.067 827.521 271.2C828.721 271.2 831.321 271.133 835.321 271C839.454 270.867 842.254 270 843.721 268.4C845.321 266.667 846.121 263.933 846.121 260.2C846.121 255.8 847.121 252 849.121 248.8C851.254 245.467 854.788 243.8 859.721 243.8ZM785.721 270.2C782.921 270.2 780.588 269.267 778.721 267.4C776.854 265.4 775.921 263.2 775.921 260.8C775.921 258.4 777.254 255.333 779.921 251.6C782.721 247.733 785.921 244.4 789.521 241.6C793.254 238.667 796.388 237.2 798.921 237.2C802.788 237.2 805.854 238.533 808.121 241.2C810.388 243.733 811.454 246.467 811.321 249.4C811.321 251.8 809.721 254.667 806.521 258C803.321 261.2 799.654 264.067 795.521 266.6C791.521 269 788.254 270.2 785.721 270.2ZM940.752 410.6C927.686 410.6 915.952 408 905.552 402.8C895.286 397.467 887.152 389.6 881.152 379.2C875.152 368.667 872.152 355.8 872.152 340.6C872.152 328.333 874.952 316.867 880.552 306.2C886.152 295.533 893.886 287 903.752 280.6C913.619 274.2 924.686 271 936.952 271C948.552 271 958.886 273.2 967.952 277.6C977.019 281.867 984.019 287.733 988.952 295.2C994.019 302.667 996.552 311 996.552 320.2C996.552 326.067 994.819 331.133 991.352 335.4C988.019 339.667 983.219 341.8 976.952 341.8C972.286 341.8 968.686 341 966.152 339.4C963.619 337.8 960.952 335.333 958.152 332C955.352 328.667 952.619 326.2 949.952 324.6C947.419 322.867 943.686 322 938.752 322C932.486 322 927.086 324.4 922.552 329.2C918.152 333.867 915.952 339.6 915.952 346.4C915.952 353.733 917.819 359.933 921.552 365C925.419 369.933 930.619 372.4 937.152 372.4C942.219 372.4 946.219 371.667 949.152 370.2C952.219 368.733 955.419 366.6 958.752 363.8C961.552 361.4 964.086 359.6 966.352 358.4C968.752 357.2 971.686 356.6 975.152 356.6C980.486 356.6 984.686 358.267 987.752 361.6C990.819 364.8 992.352 369 992.352 374.2C992.352 380.333 990.086 386.2 985.552 391.8C981.152 397.4 975.019 401.933 967.152 405.4C959.286 408.867 950.486 410.6 940.752 410.6Z" fill="white"/>
</svg>
